HIERARCHY
ROOT Hips
{
	OFFSET -8.665500 -1.496397 44.816700
	CHANNELS 6 Xposition Yposition Zposition Zrotation Xrotation Yrotation
	JOINT Chest
	{
		OFFSET -0.698600 0.806100 5.350899
		CHANNELS 6 Xposition Yposition Zposition Zrotation Xrotation Yrotation
		JOINT Chest2
		{
			OFFSET 0.000000 0.000000 4.409100
			CHANNELS 6 Xposition Yposition Zposition Zrotation Xrotation Yrotation
			JOINT Neck
			{
				OFFSET 0.000000 0.000001 10.248299
				CHANNELS 6 Xposition Yposition Zposition Zrotation Xrotation Yrotation
				JOINT Head
				{
					OFFSET 0.000000 0.000000 2.173897
					CHANNELS 6 Xposition Yposition Zposition Zrotation Xrotation Yrotation
					End Site
					{
						OFFSET 0.000000 0.000001 9.966400
					}
				}
			}
			JOINT LeftCollar
			{
				OFFSET 2.100600 -0.520900 6.016098
				CHANNELS 6 Xposition Yposition Zposition Zrotation Xrotation Yrotation
				JOINT LeftShoulder
				{
					OFFSET 5.536700 0.000000 0.000000
					CHANNELS 6 Xposition Yposition Zposition Zrotation Xrotation Yrotation
					JOINT LeftElbow
					{
						OFFSET 0.000000 -0.000001 -12.362099
						CHANNELS 6 Xposition Yposition Zposition Zrotation Xrotation Yrotation
						JOINT LeftWrist
						{
							OFFSET 0.000000 -0.000001 -10.273201
							CHANNELS 6 Xposition Yposition Zposition Zrotation Xrotation Yrotation
							End Site
							{
								OFFSET 0.000000 -0.000000 -2.173901
							}
						}
					}
				}
			}
			JOINT RightCollar
			{
				OFFSET -2.899500 -1.655900 6.981701
				CHANNELS 6 Xposition Yposition Zposition Zrotation Xrotation Yrotation
				JOINT RightShoulder
				{
					OFFSET -4.387501 0.000000 0.000000
					CHANNELS 6 Xposition Yposition Zposition Zrotation Xrotation Yrotation
					JOINT RightElbow
					{
						OFFSET 0.000000 -0.000001 -10.858101
						CHANNELS 6 Xposition Yposition Zposition Zrotation Xrotation Yrotation
						JOINT RightWrist
						{
							OFFSET 0.000000 -0.000001 -12.079601
							CHANNELS 6 Xposition Yposition Zposition Zrotation Xrotation Yrotation
							End Site
							{
								OFFSET 0.000000 0.000000 -2.173901
							}
						}
					}
				}
			}
		}
	}
	JOINT LeftHip
	{
		OFFSET 2.190800 0.073900 -2.522499
		CHANNELS 6 Xposition Yposition Zposition Zrotation Xrotation Yrotation
		JOINT LeftKnee
		{
			OFFSET 0.000000 -0.000002 -20.305000
			CHANNELS 6 Xposition Yposition Zposition Zrotation Xrotation Yrotation
			JOINT LeftAnkle
			{
				OFFSET 0.000000 -0.000001 -16.771700
				CHANNELS 6 Xposition Yposition Zposition Zrotation Xrotation Yrotation
				End Site
				{
					OFFSET 0.000000 -8.738000 0.000001
				}
			}
		}
	}
	JOINT RightHip
	{
		OFFSET -2.029500 0.054300 -2.705200
		CHANNELS 6 Xposition Yposition Zposition Zrotation Xrotation Yrotation
		JOINT RightKnee
		{
			OFFSET 0.000000 -0.000002 -20.030399
			CHANNELS 6 Xposition Yposition Zposition Zrotation Xrotation Yrotation
			JOINT RightAnkle
			{
				OFFSET 0.000000 -0.000001 -17.032700
				CHANNELS 6 Xposition Yposition Zposition Zrotation Xrotation Yrotation
				End Site
				{
					OFFSET 0.000000 -8.823600 0.000001
				}
			}
		}
	}
}
MOTION
Frames: 7
Frame Time: 0.041667
-6.188300 25.989502 43.178001 2935.289860 32.367310 6.105232 -0.698602 0.806102 5.350893 60.877968 -21.469831 23.036037 0.000001 0.000002 4.409097 0.048984 -3.239040 -0.242740 0.000002 0.000001 10.248302 -20.086176 6.756778 4.508966 0.000001 0.000001 2.173894 -1.813822 0.394513 -3.470810 2.100601 -0.520898 6.016100 -12.555367 8.881499 7.668932 5.536702 0.000007 0.000003 282.662406 -19.307036 -112.916605 0.000002 0.000002 -12.362102 -40.382981 49.000624 195.597384 -0.000008 0.000001 -10.273198 2098.428637 166.600499 -179.535224 -2.899498 -1.655900 6.981701 33.574150 26.070865 -9.109936 -4.387497 0.000001 0.000005 0.179758 -497.595018 762.873719 0.000004 -0.000002 -10.858099 159.848406 -181.721704 185.992458 -0.000001 0.000000 -12.079607 341.638768 -173.153861 136.250854 2.190795 0.073899 -2.522503 -439.092016 -155.556766 -114.979924 -0.000003 -0.000005 -20.305008 -858.785147 17.623577 73.316036 0.000000 0.000005 -16.771704 1507.250520 -2.033215 43.434238 -2.029502 0.054302 -2.705201 -82.250586 -39.876106 -113.011449 0.000000 -0.000008 -20.030397 -182.317516 16.677830 -131.827623 0.000002 -0.000000 -17.032700 407.875811 65.997386 -111.476829
-6.100701 25.997705 43.222595 2935.181233 32.349494 6.106399 -0.698605 0.806098 5.350892 60.990707 -21.793460 23.040262 -0.000002 0.000003 4.409104 0.123886 -3.255864 -0.242861 -0.000002 -0.000001 10.248300 -19.948443 6.301015 4.527590 0.000002 0.000001 2.173897 -1.972742 0.213887 -3.426365 2.100599 -0.520901 6.016104 -12.493742 8.859787 7.752417 5.536701 0.000005 -0.000001 282.781498 -19.045791 -112.919071 -0.000005 0.000001 -12.362109 -40.640681 48.852699 195.959015 0.000000 0.000001 -10.273198 2097.340834 166.913130 -179.304309 -2.899501 -1.655900 6.981698 33.034357 26.079653 -8.350713 -4.387497 -0.000002 -0.000002 2.657914 -499.022363 764.318768 0.000001 -0.000005 -10.858104 160.430871 -181.512195 185.713199 -0.000014 0.000003 -12.079597 343.131082 -173.395581 137.036981 2.190797 0.073893 -2.522506 -439.682117 -155.417608 -115.205347 -0.000008 -0.000008 -20.305006 -858.751270 17.651704 73.020337 0.000001 0.000002 -16.771702 1507.588641 -1.869191 43.732113 -2.029506 0.054294 -2.705206 -82.328614 -40.116624 -114.015624 -0.000004 -0.000006 -20.030397 -182.387703 16.684192 -132.130050 0.000002 -0.000004 -17.032698 408.642186 66.053749 -111.263392
-6.012103 26.013702 43.262794 2935.163092 32.412666 6.073996 -0.698598 0.806097 5.350896 61.051380 -22.182484 23.113616 -0.000001 0.000003 4.409100 0.189492 -3.255046 -0.240935 0.000002 0.000002 10.248302 -20.013443 5.807832 4.665506 -0.000001 0.000000 2.173894 -1.855419 0.080892 -3.492212 2.100604 -0.520899 6.016099 -12.416470 8.868371 7.841393 5.536696 0.000007 0.000002 282.836877 -19.074393 -112.937000 0.000002 0.000002 -12.362103 -41.138246 48.712219 196.352038 -0.000003 0.000002 -10.273197 2096.736061 167.309623 -179.080211 -2.899498 -1.655896 6.981699 32.954034 26.273513 -8.047789 -4.387498 -0.000001 -0.000006 3.371478 -499.871493 764.583725 0.000009 -0.000004 -10.858098 160.493367 -181.286498 185.468828 -0.000008 -0.000002 -12.079605 343.832433 -173.429363 137.918759 2.190801 0.073898 -2.522505 -440.393604 -155.278996 -115.330654 -0.000010 -0.000008 -20.305002 -859.184905 16.960963 72.777858 0.000000 0.000005 -16.771704 1508.625847 -1.812354 44.347438 -2.029501 0.054297 -2.705203 -82.582765 -40.420206 -115.103263 0.000003 0.000000 -20.030392 -182.698982 16.407465 -132.317389 -0.000003 -0.000005 -17.032696 408.297589 65.756376 -111.391281
-5.925202 26.026405 43.305000 2935.275654 32.336687 5.948777 -0.698595 0.806100 5.350898 60.986875 -22.484740 22.981601 -0.000001 0.000001 4.409097 0.228306 -3.257411 -0.239422 0.000000 0.000000 10.248300 -20.032579 5.351023 4.904731 0.000003 0.000001 2.173890 -1.769238 0.028533 -3.557513 2.100601 -0.520899 6.016114 -12.305202 8.924931 7.784090 5.536699 0.000008 0.000000 282.862176 -19.349603 -112.783321 0.000000 0.000000 -12.362096 -41.514504 48.689441 196.618825 -0.000002 0.000001 -10.273197 2096.133038 167.809825 -178.871385 -2.899500 -1.655898 6.981709 33.510633 26.633401 -8.419072 -4.387504 0.000001 0.000009 0.881514 -499.476981 762.752688 0.000002 -0.000005 -10.858101 158.940783 -181.114596 185.455482 -0.000011 -0.000004 -12.079603 343.967398 -173.231670 139.045972 2.190803 0.073901 -2.522496 -441.316827 -155.054050 -115.635758 -0.000007 -0.000002 -20.305008 -859.049885 17.233956 72.448575 0.000001 0.000008 -16.771704 1508.906158 -1.520404 44.284092 -2.029498 0.054299 -2.705198 -82.656702 -40.480790 -115.847631 0.000002 -0.000003 -20.030396 -182.564932 16.461471 -132.558153 0.000001 -0.000001 -17.032700 409.287939 65.955100 -111.150749
-5.843102 26.035505 43.341801 2935.226476 32.340556 5.934117 -0.698600 0.806098 5.350901 61.128827 -22.776939 22.987958 0.000001 0.000001 4.409095 0.265920 -3.257771 -0.238081 0.000000 0.000001 10.248298 -19.952900 4.869267 4.994143 -0.000002 -0.000000 2.173894 -1.840968 -0.066289 -3.593768 2.100599 -0.520900 6.016102 -12.296151 8.985261 7.768971 5.536699 0.000008 -0.000002 282.892966 -19.388556 -112.651676 -0.000006 -0.000001 -12.362103 -41.731397 48.732491 196.877375 -0.000001 0.000001 -10.273201 2095.492420 168.353904 -178.590418 -2.899500 -1.655898 6.981700 33.848751 26.826733 -8.759886 -4.387501 -0.000000 -0.000000 -0.471417 -499.775487 761.609478 0.000003 -0.000000 -10.858102 157.896174 -180.951027 185.393163 0.000000 -0.000000 -12.079596 344.430539 -172.976358 139.703815 2.190800 0.073897 -2.522499 -441.994682 -154.853940 -115.793864 -0.000002 -0.000006 -20.305002 -859.012948 17.393548 72.200270 0.000001 0.000006 -16.771706 1509.281545 -1.262746 44.179719 -2.029502 0.054295 -2.705197 -82.610947 -40.614627 -116.652869 -0.000002 -0.000011 -20.030394 -182.502928 16.389809 -132.752458 0.000002 -0.000003 -17.032701 409.812525 65.978234 -110.953083
-5.762500 26.035503 43.368896 2935.255327 32.254622 5.890098 -0.698601 0.806100 5.350902 61.577707 -22.810066 23.165326 0.000000 0.000000 4.409099 0.056379 -3.038931 -0.211709 -0.000001 0.000001 10.248292 -20.166659 4.183900 4.861873 -0.000003 -0.000000 2.173898 -1.839411 -0.143228 -3.667451 2.100601 -0.520900 6.016097 -12.258543 9.272395 7.143382 5.536698 0.000008 0.000009 282.376631 -20.115115 -112.996341 -0.000000 0.000003 -12.362103 -42.290349 48.790685 197.224280 0.000003 0.000002 -10.273197 2094.923493 168.769439 -178.413694 -2.899500 -1.655898 6.981697 33.728003 26.849602 -8.384377 -4.387504 -0.000002 0.000001 -0.707150 -500.314307 761.498118 0.000007 -0.000004 -10.858108 156.348153 -180.604832 185.176906 -0.000001 0.000001 -12.079599 345.713249 -172.921812 140.112643 2.190798 0.073899 -2.522504 -442.515580 -154.774819 -116.067659 -0.000009 -0.000004 -20.305010 -859.327082 16.879363 71.995965 -0.000001 0.000009 -16.771704 1509.977568 -1.190196 44.488120 -2.029500 0.054299 -2.705197 -82.584896 -40.837322 -117.352854 -0.000001 -0.000004 -20.030399 -182.684980 16.109848 -132.911042 0.000003 -0.000004 -17.032700 409.700264 65.859273 -110.659084
-5.689301 26.034006 43.402802 2935.344283 32.262825 5.869042 -0.698601 0.806106 5.350903 61.841824 -23.002568 23.343920 0.000003 0.000002 4.409107 -0.043634 -2.804776 -0.183418 -0.000002 0.000002 10.248302 -20.335119 3.500493 4.775483 0.000003 0.000000 2.173901 -1.769447 -0.230547 -3.735133 2.100597 -0.520900 6.016103 -12.305802 9.662014 6.640407 5.536701 0.000007 -0.000001 281.957913 -20.758340 -113.435652 -0.000005 0.000006 -12.362108 -42.697982 48.758292 197.404802 -0.000002 0.000002 -10.273201 2094.834755 168.636770 -178.214730 -2.899500 -1.655897 6.981706 33.729195 27.108722 -8.156795 -4.387507 -0.000001 0.000002 -0.418914 -501.527349 761.709253 -0.000000 0.000005 -10.858102 155.477891 -180.270289 184.872102 -0.000015 -0.000003 -12.079603 346.979757 -172.633742 140.465354 2.190799 0.073904 -2.522496 -442.808021 -154.822248 -116.210491 -0.000007 -0.000007 -20.305006 -859.414945 16.841903 71.764702 0.000001 0.000005 -16.771706 1510.206298 -0.937111 44.164703 -2.029503 0.054302 -2.705195 -82.641703 -41.117906 -118.100582 -0.000003 -0.000005 -20.030392 -182.917589 15.976794 -133.042332 -0.000001 -0.000003 -17.032698 410.128927 65.865024 -110.868225
